<svg width="236" height="119" viewBox="0 0 236 119" fill="none" xmlns="http://www.w3.org/2000/svg">
<path d="M18.056 47.624C13.5147 47.624 10.0653 46.5493 7.708 44.4C5.35067 42.216 4.172 38.9053 4.172 34.468V13.616C4.172 13.1653 4.39733 12.94 4.848 12.94H10.932C11.14 12.94 11.296 13.0093 11.4 13.148C11.5387 13.252 11.608 13.408 11.608 13.616V34.208C11.608 36.4267 12.128 38.16 13.168 39.408C14.208 40.6213 15.8373 41.228 18.056 41.228C20.3093 41.228 21.9387 40.6213 22.944 39.408C23.984 38.16 24.504 36.4267 24.504 34.208V13.616C24.504 13.1653 24.7293 12.94 25.18 12.94H31.264C31.7147 12.94 31.94 13.1653 31.94 13.616V34.52C31.94 38.8533 30.744 42.1293 28.352 44.348C25.9947 46.532 22.5627 47.624 18.056 47.624ZM39.233 47C38.7823 47 38.557 46.7747 38.557 46.324V13.616C38.557 13.1653 38.7823 12.94 39.233 12.94H47.501C47.8477 12.94 48.1077 13.096 48.281 13.408L55.717 28.384C56.237 29.4587 56.757 30.5507 57.277 31.66C57.797 32.7347 58.265 33.7747 58.681 34.78C59.1317 35.7853 59.4957 36.7213 59.773 37.588H59.929C59.8597 36.8947 59.8077 36.1493 59.773 35.352C59.7383 34.52 59.7037 33.688 59.669 32.856C59.6343 31.9893 59.5997 31.1573 59.565 30.36C59.565 29.528 59.565 28.7653 59.565 28.072V13.616C59.565 13.1653 59.773 12.94 60.189 12.94H66.065C66.5157 12.94 66.741 13.1653 66.741 13.616V46.324C66.741 46.7747 66.5157 47 66.065 47H57.901C57.5197 47 57.2597 46.844 57.121 46.532L49.893 32.18C49.4077 31.1747 48.9223 30.1173 48.437 29.008C47.9517 27.864 47.4663 26.7547 46.981 25.68C46.5303 24.5707 46.1143 23.548 45.733 22.612H45.577C45.6117 23.3747 45.629 24.1893 45.629 25.056C45.6637 25.888 45.681 26.7373 45.681 27.604C45.7157 28.436 45.733 29.268 45.733 30.1C45.733 30.932 45.733 31.7467 45.733 32.544V46.324C45.733 46.7747 45.5077 47 45.057 47H39.233ZM74.5841 47C74.2027 47 74.0121 46.792 74.0121 46.376V13.564C74.0121 13.148 74.2027 12.94 74.5841 12.94H79.6281C80.0441 12.94 80.2521 13.148 80.2521 13.564V46.376C80.2521 46.792 80.0441 47 79.6281 47H74.5841ZM96.2993 47C95.918 47 95.6753 46.844 95.5713 46.532L84.7033 13.616C84.5647 13.1653 84.7207 12.94 85.1713 12.94H90.6313C91.0127 12.94 91.2553 13.096 91.3593 13.408L97.5993 33.948C97.9807 35.196 98.3447 36.444 98.6913 37.692C99.038 38.94 99.3673 40.188 99.6793 41.436H99.7833C100.095 40.188 100.425 38.9573 100.771 37.744C101.153 36.496 101.517 35.248 101.863 34L108.259 13.46C108.363 13.1133 108.606 12.94 108.987 12.94H114.447C114.898 12.94 115.054 13.1653 114.915 13.616L103.839 46.532C103.735 46.844 103.51 47 103.163 47H96.2993Z" fill="#EFEEEE"/>
<path d="M9.52214 113.216C8.04614 113.216 6.92414 112.85 6.15614 112.118C5.38814 111.374 5.00414 110.306 5.00414 108.914V105.296C5.00414 103.904 5.38814 102.842 6.15614 102.11C6.93614 101.366 8.06414 100.994 9.54014 100.994C10.5001 100.994 11.3341 101.156 12.0421 101.48C12.7621 101.804 13.2961 102.266 13.6441 102.866C14.0041 103.466 14.1241 104.186 14.0041 105.026C13.9921 105.086 13.9741 105.146 13.9501 105.206C13.9261 105.254 13.8781 105.278 13.8061 105.278H12.4561C12.3241 105.278 12.2641 105.212 12.2761 105.08C12.3121 104.264 12.0961 103.634 11.6281 103.19C11.1721 102.734 10.4821 102.506 9.55814 102.506C8.64614 102.506 7.94414 102.746 7.45214 103.226C6.96014 103.694 6.71414 104.384 6.71414 105.296V108.914C6.71414 109.826 6.96014 110.522 7.45214 111.002C7.94414 111.47 8.64614 111.704 9.55814 111.704C10.4821 111.704 11.1901 111.476 11.6821 111.02C12.1741 110.564 12.3721 109.934 12.2761 109.13C12.2641 108.998 12.3241 108.932 12.4561 108.932H13.7881C13.9081 108.932 13.9801 109.016 14.0041 109.184C14.0761 110 13.9321 110.708 13.5721 111.308C13.2241 111.908 12.7021 112.376 12.0061 112.712C11.3101 113.048 10.4821 113.216 9.52214 113.216ZM19.8713 113.216C18.6473 113.216 17.7113 112.922 17.0633 112.334C16.4153 111.734 16.0913 110.828 16.0913 109.616V107.582C16.0913 106.37 16.4093 105.47 17.0453 104.882C17.6933 104.282 18.6353 103.982 19.8713 103.982C21.1073 103.982 22.0493 104.282 22.6973 104.882C23.3453 105.47 23.6693 106.37 23.6693 107.582V109.616C23.6693 110.828 23.3453 111.734 22.6973 112.334C22.0613 112.922 21.1193 113.216 19.8713 113.216ZM19.8713 111.722C20.6033 111.722 21.1313 111.536 21.4553 111.164C21.7913 110.792 21.9593 110.222 21.9593 109.454V107.726C21.9593 106.97 21.7913 106.406 21.4553 106.034C21.1313 105.662 20.6033 105.476 19.8713 105.476C19.1393 105.476 18.6113 105.662 18.2873 106.034C17.9633 106.406 17.8013 106.97 17.8013 107.726V109.454C17.8013 110.222 17.9633 110.792 18.2873 111.164C18.6113 111.536 19.1393 111.722 19.8713 111.722ZM26.1908 113C26.0708 113 26.0108 112.934 26.0108 112.802V106.412C26.0108 106.076 25.9988 105.734 25.9748 105.386C25.9628 105.026 25.9328 104.702 25.8848 104.414C25.8608 104.27 25.9268 104.198 26.0828 104.198H27.2888C27.3488 104.198 27.3908 104.204 27.4148 104.216C27.4508 104.228 27.4748 104.264 27.4868 104.324C27.5108 104.504 27.5408 104.696 27.5768 104.9C27.6128 105.104 27.6368 105.308 27.6488 105.512C28.1648 104.996 28.6628 104.612 29.1428 104.36C29.6228 104.108 30.1448 103.982 30.7088 103.982C31.3208 103.982 31.8128 104.12 32.1848 104.396C32.5568 104.672 32.8208 105.08 32.9768 105.62C33.5288 105.056 34.0508 104.642 34.5428 104.378C35.0348 104.114 35.5688 103.982 36.1448 103.982C36.9608 103.982 37.5728 104.234 37.9808 104.738C38.4008 105.23 38.6108 105.968 38.6108 106.952V112.802C38.6108 112.934 38.5448 113 38.4128 113H37.0808C36.9608 113 36.9008 112.934 36.9008 112.802V107.132C36.9008 106.58 36.7988 106.166 36.5948 105.89C36.4028 105.614 36.0908 105.476 35.6588 105.476C35.2748 105.476 34.8908 105.596 34.5068 105.836C34.1228 106.064 33.6728 106.418 33.1568 106.898V112.802C33.1568 112.934 33.0968 113 32.9768 113H31.6448C31.5128 113 31.4468 112.934 31.4468 112.802V107.132C31.4468 106.58 31.3448 106.166 31.1408 105.89C30.9488 105.614 30.6368 105.476 30.2048 105.476C29.8328 105.476 29.4488 105.596 29.0528 105.836C28.6688 106.064 28.2248 106.418 27.7208 106.898V112.802C27.7208 112.934 27.6548 113 27.5228 113H26.1908ZM41.3608 113C41.2408 113 41.1808 112.934 41.1808 112.802V106.412C41.1808 106.076 41.1688 105.734 41.1448 105.386C41.1328 105.026 41.1028 104.702 41.0548 104.414C41.0308 104.27 41.0968 104.198 41.2528 104.198H42.4588C42.5188 104.198 42.5608 104.204 42.5848 104.216C42.6208 104.228 42.6448 104.264 42.6568 104.324C42.6808 104.504 42.7108 104.696 42.7468 104.9C42.7828 105.104 42.8068 105.308 42.8188 105.512C43.3348 104.996 43.8328 104.612 44.3128 104.36C44.7928 104.108 45.3148 103.982 45.8788 103.982C46.4908 103.982 46.9828 104.12 47.3548 104.396C47.7268 104.672 47.9908 105.08 48.1468 105.62C48.6988 105.056 49.2208 104.642 49.7128 104.378C50.2048 104.114 50.7388 103.982 51.3148 103.982C52.1308 103.982 52.7428 104.234 53.1508 104.738C53.5708 105.23 53.7808 105.968 53.7808 106.952V112.802C53.7808 112.934 53.7148 113 53.5828 113H52.2508C52.1308 113 52.0708 112.934 52.0708 112.802V107.132C52.0708 106.58 51.9688 106.166 51.7648 105.89C51.5728 105.614 51.2608 105.476 50.8288 105.476C50.4448 105.476 50.0608 105.596 49.6768 105.836C49.2928 106.064 48.8428 106.418 48.3268 106.898V112.802C48.3268 112.934 48.2668 113 48.1468 113H46.8148C46.6828 113 46.6168 112.934 46.6168 112.802V107.132C46.6168 106.58 46.5148 106.166 46.3108 105.89C46.1188 105.614 45.8068 105.476 45.3748 105.476C45.0028 105.476 44.6188 105.596 44.2228 105.836C43.8388 106.064 43.3948 106.418 42.8908 106.898V112.802C42.8908 112.934 42.8248 113 42.6928 113H41.3608ZM58.7267 113.216C57.9587 113.216 57.3707 112.964 56.9627 112.46C56.5547 111.944 56.3507 111.2 56.3507 110.228V104.378C56.3507 104.258 56.4107 104.198 56.5307 104.198H57.8627C57.9947 104.198 58.0607 104.258 58.0607 104.378V110.066C58.0607 110.63 58.1567 111.05 58.3487 111.326C58.5527 111.59 58.8647 111.722 59.2847 111.722C59.7167 111.722 60.1487 111.59 60.5807 111.326C61.0127 111.05 61.5407 110.594 62.1647 109.958V111.434C61.7927 111.806 61.4147 112.13 61.0307 112.406C60.6587 112.67 60.2807 112.868 59.8967 113C59.5247 113.144 59.1347 113.216 58.7267 113.216ZM62.3267 113C62.2547 113 62.2007 112.988 62.1647 112.964C62.1287 112.928 62.1047 112.88 62.0927 112.82C62.0567 112.592 62.0267 112.358 62.0027 112.118C61.9787 111.878 61.9607 111.632 61.9487 111.38L61.8407 110.588V104.378C61.8407 104.258 61.9007 104.198 62.0207 104.198H63.3527C63.4847 104.198 63.5507 104.258 63.5507 104.378V110.786C63.5507 111.122 63.5567 111.464 63.5687 111.812C63.5927 112.148 63.6227 112.478 63.6587 112.802C63.6827 112.934 63.6167 113 63.4607 113H62.3267ZM72.0461 113C71.9141 113 71.8481 112.934 71.8481 112.802V107.132C71.8481 106.556 71.7281 106.136 71.4881 105.872C71.2601 105.608 70.9121 105.476 70.4441 105.476C69.9881 105.476 69.5381 105.614 69.0941 105.89C68.6621 106.154 68.1281 106.598 67.4921 107.222V105.782C67.8761 105.362 68.2481 105.02 68.6081 104.756C68.9801 104.492 69.3521 104.3 69.7241 104.18C70.0961 104.048 70.4921 103.982 70.9121 103.982C71.7761 103.982 72.4301 104.234 72.8741 104.738C73.3301 105.23 73.5581 105.974 73.5581 106.97V112.802C73.5581 112.934 73.4981 113 73.3781 113H72.0461ZM66.3041 113C66.1841 113 66.1241 112.934 66.1241 112.802V106.412C66.1241 106.088 66.1061 105.734 66.0701 105.35C66.0461 104.966 66.0221 104.66 65.9981 104.432C65.9741 104.276 66.0341 104.198 66.1781 104.198H67.4021C67.4621 104.198 67.5101 104.21 67.5461 104.234C67.5821 104.258 67.6061 104.306 67.6181 104.378C67.6421 104.474 67.6661 104.624 67.6901 104.828C67.7141 105.02 67.7381 105.224 67.7621 105.44C67.7861 105.656 67.7981 105.842 67.7981 105.998L67.8341 106.556V112.802C67.8341 112.934 67.7681 113 67.6361 113H66.3041ZM76.3237 113C76.2037 113 76.1437 112.934 76.1437 112.802V104.378C76.1437 104.258 76.2037 104.198 76.3237 104.198H77.6557C77.7877 104.198 77.8537 104.258 77.8537 104.378V112.802C77.8537 112.934 77.7877 113 77.6557 113H76.3237ZM76.9897 102.776C76.6297 102.776 76.3597 102.68 76.1797 102.488C76.0117 102.296 75.9277 102.044 75.9277 101.732V101.534C75.9277 101.222 76.0117 100.97 76.1797 100.778C76.3597 100.586 76.6297 100.49 76.9897 100.49C77.3617 100.49 77.6317 100.586 77.7997 100.778C77.9677 100.97 78.0517 101.222 78.0517 101.534V101.732C78.0517 102.044 77.9677 102.296 77.7997 102.488C77.6317 102.68 77.3617 102.776 76.9897 102.776ZM83.6367 113.216C83.0007 113.216 82.4907 113.114 82.1067 112.91C81.7227 112.694 81.4467 112.37 81.2787 111.938C81.1107 111.506 81.0267 110.966 81.0267 110.318V105.656H79.6587C79.5267 105.656 79.4607 105.59 79.4607 105.458V104.378C79.4607 104.258 79.5267 104.198 79.6587 104.198H81.0627L81.2787 102.038C81.2907 101.906 81.3627 101.84 81.4947 101.84H82.5387C82.6587 101.84 82.7187 101.906 82.7187 102.038L82.7367 104.198H85.3467C85.4787 104.198 85.5447 104.258 85.5447 104.378V105.458C85.5447 105.59 85.4787 105.656 85.3467 105.656H82.7367V110.246C82.7367 110.786 82.8327 111.17 83.0247 111.398C83.2167 111.626 83.5407 111.74 83.9967 111.74C84.2367 111.74 84.4707 111.716 84.6987 111.668C84.9387 111.608 85.1487 111.536 85.3287 111.452C85.4007 111.428 85.4547 111.428 85.4907 111.452C85.5387 111.476 85.5627 111.524 85.5627 111.596V112.694C85.5627 112.802 85.5087 112.874 85.4007 112.91C85.1847 112.994 84.9267 113.066 84.6267 113.126C84.3387 113.186 84.0087 113.216 83.6367 113.216ZM88.8654 116.33C88.7214 116.33 88.6794 116.252 88.7394 116.096L89.9994 112.91L86.6874 104.414C86.6274 104.27 86.6694 104.198 86.8134 104.198H88.2714C88.3674 104.198 88.4334 104.246 88.4694 104.342L89.9994 108.5C90.1434 108.872 90.2814 109.262 90.4134 109.67C90.5454 110.066 90.6714 110.462 90.7914 110.858H90.8274C90.9474 110.462 91.0794 110.066 91.2234 109.67C91.3674 109.274 91.5054 108.884 91.6374 108.5L93.1494 104.342C93.1854 104.246 93.2634 104.198 93.3834 104.198H94.7694C94.8294 104.198 94.8714 104.222 94.8954 104.27C94.9314 104.306 94.9374 104.354 94.9134 104.414L90.3954 116.186C90.3594 116.282 90.2934 116.33 90.1974 116.33H88.8654ZM104.057 113.216C103.085 113.216 102.281 113.078 101.645 112.802C101.021 112.514 100.565 112.118 100.277 111.614C100.001 111.098 99.8867 110.498 99.9347 109.814C99.9467 109.61 100.025 109.508 100.169 109.508H101.465C101.609 109.508 101.681 109.598 101.681 109.778C101.681 110.474 101.885 110.972 102.293 111.272C102.713 111.572 103.343 111.722 104.183 111.722C104.999 111.722 105.611 111.584 106.019 111.308C106.439 111.02 106.649 110.582 106.649 109.994C106.649 109.706 106.601 109.46 106.505 109.256C106.409 109.052 106.247 108.872 106.019 108.716C105.791 108.548 105.479 108.386 105.083 108.23L102.455 107.132C101.891 106.892 101.435 106.628 101.087 106.34C100.751 106.052 100.505 105.722 100.349 105.35C100.205 104.978 100.133 104.558 100.133 104.09C100.145 103.082 100.481 102.32 101.141 101.804C101.801 101.276 102.767 101.012 104.039 101.012C104.915 101.012 105.671 101.138 106.307 101.39C106.943 101.642 107.423 102.014 107.747 102.506C108.071 102.986 108.197 103.586 108.125 104.306C108.101 104.522 108.035 104.63 107.927 104.63H106.613C106.541 104.63 106.487 104.606 106.451 104.558C106.427 104.51 106.421 104.426 106.433 104.306C106.481 103.73 106.283 103.286 105.839 102.974C105.407 102.65 104.795 102.488 104.003 102.488C103.295 102.488 102.761 102.614 102.401 102.866C102.041 103.118 101.855 103.502 101.843 104.018C101.843 104.282 101.891 104.516 101.987 104.72C102.095 104.924 102.263 105.11 102.491 105.278C102.731 105.446 103.055 105.62 103.463 105.8L106.073 106.898C106.625 107.126 107.069 107.384 107.405 107.672C107.753 107.948 107.999 108.272 108.143 108.644C108.299 109.016 108.371 109.46 108.359 109.976C108.359 110.996 108.011 111.794 107.315 112.37C106.631 112.934 105.545 113.216 104.057 113.216ZM114.107 113.216C112.883 113.216 111.953 112.916 111.317 112.316C110.681 111.704 110.363 110.828 110.363 109.688V107.51C110.363 106.37 110.687 105.5 111.335 104.9C111.983 104.288 112.919 103.982 114.143 103.982C114.875 103.982 115.499 104.096 116.015 104.324C116.543 104.552 116.945 104.864 117.221 105.26C117.497 105.656 117.635 106.118 117.635 106.646C117.635 106.91 117.569 107.042 117.437 107.042H116.123C116.075 107.042 116.033 107.018 115.997 106.97C115.961 106.922 115.943 106.856 115.943 106.772C115.943 106.352 115.781 106.034 115.457 105.818C115.133 105.59 114.695 105.476 114.143 105.476C113.447 105.476 112.925 105.656 112.577 106.016C112.241 106.364 112.073 106.916 112.073 107.672V109.526C112.073 110.27 112.241 110.822 112.577 111.182C112.925 111.542 113.441 111.722 114.125 111.722C114.689 111.722 115.127 111.602 115.439 111.362C115.763 111.11 115.925 110.804 115.925 110.444C115.925 110.252 115.985 110.156 116.105 110.156H117.419C117.551 110.156 117.617 110.216 117.617 110.336C117.617 111.212 117.317 111.914 116.717 112.442C116.117 112.958 115.247 113.216 114.107 113.216ZM120.128 113C120.008 113 119.948 112.934 119.948 112.802V104.378C119.948 104.258 120.008 104.198 120.128 104.198H121.46C121.592 104.198 121.658 104.258 121.658 104.378V112.802C121.658 112.934 121.592 113 121.46 113H120.128ZM120.794 102.776C120.434 102.776 120.164 102.68 119.984 102.488C119.816 102.296 119.732 102.044 119.732 101.732V101.534C119.732 101.222 119.816 100.97 119.984 100.778C120.164 100.586 120.434 100.49 120.794 100.49C121.166 100.49 121.436 100.586 121.604 100.778C121.772 100.97 121.856 101.222 121.856 101.534V101.732C121.856 102.044 121.772 102.296 121.604 102.488C121.436 102.68 121.166 102.776 120.794 102.776ZM127.675 113.216C126.475 113.216 125.563 112.94 124.939 112.388C124.315 111.836 124.003 111.026 124.003 109.958V107.51C124.003 106.358 124.309 105.482 124.921 104.882C125.545 104.282 126.457 103.982 127.657 103.982C128.857 103.982 129.763 104.276 130.375 104.864C130.999 105.452 131.311 106.304 131.311 107.42V108.824C131.311 108.944 131.251 109.004 131.131 109.004H125.695V109.58C125.695 110.336 125.857 110.888 126.181 111.236C126.505 111.584 127.027 111.758 127.747 111.758C128.287 111.758 128.701 111.674 128.989 111.506C129.289 111.326 129.439 111.062 129.439 110.714C129.439 110.582 129.505 110.516 129.637 110.516H130.969C131.065 110.516 131.125 110.57 131.149 110.678C131.197 111.482 130.909 112.106 130.285 112.55C129.673 112.994 128.803 113.216 127.675 113.216ZM125.695 107.654H129.619V107.564C129.619 106.832 129.457 106.298 129.133 105.962C128.809 105.614 128.329 105.44 127.693 105.44C127.021 105.44 126.517 105.62 126.181 105.98C125.857 106.328 125.695 106.862 125.695 107.582V107.654ZM139.564 113C139.432 113 139.366 112.934 139.366 112.802V107.132C139.366 106.556 139.246 106.136 139.006 105.872C138.778 105.608 138.43 105.476 137.962 105.476C137.506 105.476 137.056 105.614 136.612 105.89C136.18 106.154 135.646 106.598 135.01 107.222V105.782C135.394 105.362 135.766 105.02 136.126 104.756C136.498 104.492 136.87 104.3 137.242 104.18C137.614 104.048 138.01 103.982 138.43 103.982C139.294 103.982 139.948 104.234 140.392 104.738C140.848 105.23 141.076 105.974 141.076 106.97V112.802C141.076 112.934 141.016 113 140.896 113H139.564ZM133.822 113C133.702 113 133.642 112.934 133.642 112.802V106.412C133.642 106.088 133.624 105.734 133.588 105.35C133.564 104.966 133.54 104.66 133.516 104.432C133.492 104.276 133.552 104.198 133.696 104.198H134.92C134.98 104.198 135.028 104.21 135.064 104.234C135.1 104.258 135.124 104.306 135.136 104.378C135.16 104.474 135.184 104.624 135.208 104.828C135.232 105.02 135.256 105.224 135.28 105.44C135.304 105.656 135.316 105.842 135.316 105.998L135.352 106.556V112.802C135.352 112.934 135.286 113 135.154 113H133.822ZM147.171 113.216C145.947 113.216 145.017 112.916 144.381 112.316C143.745 111.704 143.427 110.828 143.427 109.688V107.51C143.427 106.37 143.751 105.5 144.399 104.9C145.047 104.288 145.983 103.982 147.207 103.982C147.939 103.982 148.563 104.096 149.079 104.324C149.607 104.552 150.009 104.864 150.285 105.26C150.561 105.656 150.699 106.118 150.699 106.646C150.699 106.91 150.633 107.042 150.501 107.042H149.187C149.139 107.042 149.097 107.018 149.061 106.97C149.025 106.922 149.007 106.856 149.007 106.772C149.007 106.352 148.845 106.034 148.521 105.818C148.197 105.59 147.759 105.476 147.207 105.476C146.511 105.476 145.989 105.656 145.641 106.016C145.305 106.364 145.137 106.916 145.137 107.672V109.526C145.137 110.27 145.305 110.822 145.641 111.182C145.989 111.542 146.505 111.722 147.189 111.722C147.753 111.722 148.191 111.602 148.503 111.362C148.827 111.11 148.989 110.804 148.989 110.444C148.989 110.252 149.049 110.156 149.169 110.156H150.483C150.615 110.156 150.681 110.216 150.681 110.336C150.681 111.212 150.381 111.914 149.781 112.442C149.181 112.958 148.311 113.216 147.171 113.216ZM156.38 113.216C155.18 113.216 154.268 112.94 153.644 112.388C153.02 111.836 152.708 111.026 152.708 109.958V107.51C152.708 106.358 153.014 105.482 153.626 104.882C154.25 104.282 155.162 103.982 156.362 103.982C157.562 103.982 158.468 104.276 159.08 104.864C159.704 105.452 160.016 106.304 160.016 107.42V108.824C160.016 108.944 159.956 109.004 159.836 109.004H154.4V109.58C154.4 110.336 154.562 110.888 154.886 111.236C155.21 111.584 155.732 111.758 156.452 111.758C156.992 111.758 157.406 111.674 157.694 111.506C157.994 111.326 158.144 111.062 158.144 110.714C158.144 110.582 158.21 110.516 158.342 110.516H159.674C159.77 110.516 159.83 110.57 159.854 110.678C159.902 111.482 159.614 112.106 158.99 112.55C158.378 112.994 157.508 113.216 156.38 113.216ZM154.4 107.654H158.324V107.564C158.324 106.832 158.162 106.298 157.838 105.962C157.514 105.614 157.034 105.44 156.398 105.44C155.726 105.44 155.222 105.62 154.886 105.98C154.562 106.328 154.4 106.862 154.4 107.582V107.654ZM166.181 113C166.133 113 166.091 112.982 166.055 112.946C166.019 112.91 166.001 112.862 166.001 112.802L166.253 101.408C166.253 101.276 166.313 101.21 166.433 101.21H168.467C168.563 101.21 168.635 101.258 168.683 101.354L171.779 108.284L174.839 101.354C174.887 101.258 174.959 101.21 175.055 101.21H177.089C177.209 101.21 177.269 101.276 177.269 101.408L177.521 112.802C177.521 112.862 177.503 112.91 177.467 112.946C177.443 112.982 177.401 113 177.341 113H176.027C175.907 113 175.847 112.934 175.847 112.802L175.667 105.998C175.655 105.554 175.655 105.11 175.667 104.666C175.691 104.21 175.715 103.754 175.739 103.298H175.685C175.505 103.754 175.319 104.204 175.127 104.648C174.935 105.092 174.731 105.536 174.515 105.98L171.995 111.416C171.947 111.512 171.875 111.56 171.779 111.56H171.725C171.629 111.56 171.563 111.512 171.527 111.416L168.953 105.908C168.761 105.476 168.569 105.044 168.377 104.612C168.197 104.168 168.023 103.73 167.855 103.298H167.801C167.825 103.73 167.843 104.174 167.855 104.63C167.867 105.074 167.867 105.512 167.855 105.944L167.675 112.802C167.675 112.934 167.615 113 167.495 113H166.181ZM182.406 113.216C181.638 113.216 181.05 112.964 180.642 112.46C180.234 111.944 180.03 111.2 180.03 110.228V104.378C180.03 104.258 180.09 104.198 180.21 104.198H181.542C181.674 104.198 181.74 104.258 181.74 104.378V110.066C181.74 110.63 181.836 111.05 182.028 111.326C182.232 111.59 182.544 111.722 182.964 111.722C183.396 111.722 183.828 111.59 184.26 111.326C184.692 111.05 185.22 110.594 185.844 109.958V111.434C185.472 111.806 185.094 112.13 184.71 112.406C184.338 112.67 183.96 112.868 183.576 113C183.204 113.144 182.814 113.216 182.406 113.216ZM186.006 113C185.934 113 185.88 112.988 185.844 112.964C185.808 112.928 185.784 112.88 185.772 112.82C185.736 112.592 185.706 112.358 185.682 112.118C185.658 111.878 185.64 111.632 185.628 111.38L185.52 110.588V104.378C185.52 104.258 185.58 104.198 185.7 104.198H187.032C187.164 104.198 187.23 104.258 187.23 104.378V110.786C187.23 111.122 187.236 111.464 187.248 111.812C187.272 112.148 187.302 112.478 187.338 112.802C187.362 112.934 187.296 113 187.14 113H186.006ZM192.72 113.216C191.604 113.216 190.77 112.982 190.218 112.514C189.678 112.034 189.414 111.314 189.426 110.354C189.426 110.246 189.486 110.192 189.606 110.192H190.938C191.046 110.192 191.1 110.246 191.1 110.354C191.1 110.858 191.226 111.224 191.478 111.452C191.742 111.68 192.156 111.794 192.72 111.794C193.284 111.794 193.704 111.704 193.98 111.524C194.268 111.332 194.412 111.062 194.412 110.714C194.412 110.45 194.328 110.228 194.16 110.048C194.004 109.868 193.746 109.7 193.386 109.544L191.334 108.698C190.686 108.422 190.224 108.11 189.948 107.762C189.672 107.414 189.534 106.958 189.534 106.394C189.534 105.59 189.792 104.99 190.308 104.594C190.824 104.186 191.592 103.982 192.612 103.982C193.668 103.982 194.478 104.198 195.042 104.63C195.618 105.05 195.906 105.656 195.906 106.448C195.906 106.568 195.84 106.628 195.708 106.628H194.394C194.346 106.628 194.304 106.61 194.268 106.574C194.232 106.526 194.214 106.448 194.214 106.34C194.214 106.04 194.076 105.806 193.8 105.638C193.536 105.47 193.164 105.386 192.684 105.386C192.204 105.386 191.844 105.47 191.604 105.638C191.364 105.806 191.244 106.058 191.244 106.394C191.244 106.646 191.31 106.838 191.442 106.97C191.574 107.09 191.844 107.24 192.252 107.42L194.304 108.284C194.94 108.536 195.402 108.848 195.69 109.22C195.978 109.58 196.122 110.048 196.122 110.624C196.122 111.464 195.828 112.106 195.24 112.55C194.652 112.994 193.812 113.216 192.72 113.216ZM201.627 113.216C200.427 113.216 199.515 112.94 198.891 112.388C198.267 111.836 197.955 111.026 197.955 109.958V107.51C197.955 106.358 198.261 105.482 198.873 104.882C199.497 104.282 200.409 103.982 201.609 103.982C202.809 103.982 203.715 104.276 204.327 104.864C204.951 105.452 205.263 106.304 205.263 107.42V108.824C205.263 108.944 205.203 109.004 205.083 109.004H199.647V109.58C199.647 110.336 199.809 110.888 200.133 111.236C200.457 111.584 200.979 111.758 201.699 111.758C202.239 111.758 202.653 111.674 202.941 111.506C203.241 111.326 203.391 111.062 203.391 110.714C203.391 110.582 203.457 110.516 203.589 110.516H204.921C205.017 110.516 205.077 110.57 205.101 110.678C205.149 111.482 204.861 112.106 204.237 112.55C203.625 112.994 202.755 113.216 201.627 113.216ZM199.647 107.654H203.571V107.564C203.571 106.832 203.409 106.298 203.085 105.962C202.761 105.614 202.281 105.44 201.645 105.44C200.973 105.44 200.469 105.62 200.133 105.98C199.809 106.328 199.647 106.862 199.647 107.582V107.654ZM209.969 113.216C209.201 113.216 208.613 112.964 208.205 112.46C207.797 111.944 207.593 111.2 207.593 110.228V104.378C207.593 104.258 207.653 104.198 207.773 104.198H209.105C209.237 104.198 209.303 104.258 209.303 104.378V110.066C209.303 110.63 209.399 111.05 209.591 111.326C209.795 111.59 210.107 111.722 210.527 111.722C210.959 111.722 211.391 111.59 211.823 111.326C212.255 111.05 212.783 110.594 213.407 109.958V111.434C213.035 111.806 212.657 112.13 212.273 112.406C211.901 112.67 211.523 112.868 211.139 113C210.767 113.144 210.377 113.216 209.969 113.216ZM213.569 113C213.497 113 213.443 112.988 213.407 112.964C213.371 112.928 213.347 112.88 213.335 112.82C213.299 112.592 213.269 112.358 213.245 112.118C213.221 111.878 213.203 111.632 213.191 111.38L213.083 110.588V104.378C213.083 104.258 213.143 104.198 213.263 104.198H214.595C214.727 104.198 214.793 104.258 214.793 104.378V110.786C214.793 111.122 214.799 111.464 214.811 111.812C214.835 112.148 214.865 112.478 214.901 112.802C214.925 112.934 214.859 113 214.703 113H213.569ZM217.546 113C217.426 113 217.366 112.934 217.366 112.802V106.412C217.366 106.076 217.354 105.734 217.33 105.386C217.318 105.026 217.288 104.702 217.24 104.414C217.216 104.27 217.282 104.198 217.438 104.198H218.644C218.704 104.198 218.746 104.204 218.77 104.216C218.806 104.228 218.83 104.264 218.842 104.324C218.866 104.504 218.896 104.696 218.932 104.9C218.968 105.104 218.992 105.308 219.004 105.512C219.52 104.996 220.018 104.612 220.498 104.36C220.978 104.108 221.5 103.982 222.064 103.982C222.676 103.982 223.168 104.12 223.54 104.396C223.912 104.672 224.176 105.08 224.332 105.62C224.884 105.056 225.406 104.642 225.898 104.378C226.39 104.114 226.924 103.982 227.5 103.982C228.316 103.982 228.928 104.234 229.336 104.738C229.756 105.23 229.966 105.968 229.966 106.952V112.802C229.966 112.934 229.9 113 229.768 113H228.436C228.316 113 228.256 112.934 228.256 112.802V107.132C228.256 106.58 228.154 106.166 227.95 105.89C227.758 105.614 227.446 105.476 227.014 105.476C226.63 105.476 226.246 105.596 225.862 105.836C225.478 106.064 225.028 106.418 224.512 106.898V112.802C224.512 112.934 224.452 113 224.332 113H223C222.868 113 222.802 112.934 222.802 112.802V107.132C222.802 106.58 222.7 106.166 222.496 105.89C222.304 105.614 221.992 105.476 221.56 105.476C221.188 105.476 220.804 105.596 220.408 105.836C220.024 106.064 219.58 106.418 219.076 106.898V112.802C219.076 112.934 219.01 113 218.878 113H217.546Z" fill="#EFEEEE"/>
<path d="M5.732 90C5.35067 90 5.16 89.8093 5.16 89.428V56.512C5.16 56.1307 5.35067 55.94 5.732 55.94H24.868C25.2147 55.94 25.388 56.1307 25.388 56.512V60.048C25.388 60.4293 25.2147 60.62 24.868 60.62H10.412V70.5H23.62C23.9667 70.5 24.14 70.6733 24.14 71.02V74.4C24.14 74.7813 23.9667 74.972 23.62 74.972H10.412V85.32H24.868C25.2147 85.32 25.388 85.5107 25.388 85.892V89.428C25.388 89.8093 25.2147 90 24.868 90H5.732ZM33.6109 90C33.2296 90 33.0389 89.8093 33.0389 89.428V56.512C33.0389 56.1307 33.2296 55.94 33.6109 55.94H44.0109C48.3096 55.94 51.4642 56.7547 53.4749 58.384C55.4856 60.0133 56.4909 62.4227 56.4909 65.612C56.4909 68.0733 55.9189 70.136 54.7749 71.8C53.6309 73.4293 51.9669 74.556 49.7829 75.18V75.232L58.3629 89.324C58.4669 89.4973 58.4842 89.6533 58.4149 89.792C58.3456 89.9307 58.1896 90 57.9469 90H53.1629C52.8509 90 52.6256 89.8787 52.4869 89.636L44.2709 75.908H38.2909V89.428C38.2909 89.8093 38.1002 90 37.7189 90H33.6109ZM38.2909 71.748H43.6469C46.3162 71.748 48.2402 71.28 49.4189 70.344C50.6322 69.408 51.2389 67.9173 51.2389 65.872C51.2389 63.896 50.6842 62.492 49.5749 61.66C48.4656 60.828 46.5936 60.412 43.9589 60.412H38.2909V71.748ZM74.9716 90.624C72.1636 90.624 69.841 90.2253 68.0036 89.428C66.201 88.596 64.8836 87.452 64.0516 85.996C63.2543 84.5053 62.925 82.772 63.0636 80.796C63.0983 80.2067 63.3236 79.912 63.7396 79.912H67.4836C67.8996 79.912 68.1076 80.172 68.1076 80.692C68.1076 82.7027 68.697 84.1413 69.8756 85.008C71.089 85.8747 72.909 86.308 75.3356 86.308C77.693 86.308 79.461 85.9093 80.6396 85.112C81.853 84.28 82.4596 83.0147 82.4596 81.316C82.4596 80.484 82.321 79.7733 82.0436 79.184C81.7663 78.5947 81.2983 78.0747 80.6396 77.624C79.981 77.1387 79.0796 76.6707 77.9356 76.22L70.3436 73.048C68.7143 72.3547 67.397 71.592 66.3916 70.76C65.421 69.928 64.7103 68.9747 64.2596 67.9C63.8436 66.8253 63.6356 65.612 63.6356 64.26C63.6703 61.348 64.641 59.1467 66.5476 57.656C68.4543 56.1307 71.245 55.368 74.9196 55.368C77.4503 55.368 79.6343 55.732 81.4716 56.46C83.309 57.188 84.6956 58.2627 85.6316 59.684C86.5676 61.0707 86.9316 62.804 86.7236 64.884C86.6543 65.508 86.4636 65.82 86.1516 65.82H82.3556C82.1476 65.82 81.9916 65.7507 81.8876 65.612C81.8183 65.4733 81.801 65.2307 81.8356 64.884C81.9743 63.22 81.4023 61.9373 80.1196 61.036C78.8716 60.1 77.1036 59.632 74.8156 59.632C72.7703 59.632 71.2276 59.996 70.1876 60.724C69.1476 61.452 68.6103 62.5613 68.5756 64.052C68.5756 64.8147 68.7143 65.4907 68.9916 66.08C69.3036 66.6693 69.789 67.2067 70.4476 67.692C71.141 68.1773 72.077 68.68 73.2556 69.2L80.7956 72.372C82.3903 73.0307 83.673 73.776 84.6436 74.608C85.649 75.4053 86.3596 76.3413 86.7756 77.416C87.2263 78.4907 87.4343 79.7733 87.3996 81.264C87.3996 84.2107 86.3943 86.516 84.3836 88.18C82.4076 89.8093 79.2703 90.624 74.9716 90.624ZM94.9051 90C94.5584 90 94.3851 89.8093 94.3851 89.428V56.512C94.3851 56.1307 94.5584 55.94 94.9051 55.94H113.833C114.18 55.94 114.353 56.1307 114.353 56.512V59.84C114.353 60.2213 114.18 60.412 113.833 60.412H99.3251V70.552H112.585C112.932 70.552 113.105 70.7427 113.105 71.124V74.296C113.105 74.6773 112.932 74.868 112.585 74.868H99.3251V85.528H113.833C114.18 85.528 114.353 85.7187 114.353 86.1V89.428C114.353 89.8093 114.18 90 113.833 90H94.9051Z" fill="#EFEEEE"/>
</svg>
