<svg width="227" height="61" viewBox="0 0 227 61" fill="none" xmlns="http://www.w3.org/2000/svg">
<path d="M14.056 35.624C9.51467 35.624 6.06533 34.5493 3.708 32.4C1.35067 30.216 0.172 26.9053 0.172 22.468V1.616C0.172 1.16533 0.397334 0.939998 0.848 0.939998H6.932C7.14 0.939998 7.296 1.00933 7.4 1.148C7.53867 1.252 7.608 1.408 7.608 1.616V22.208C7.608 24.4267 8.128 26.16 9.168 27.408C10.208 28.6213 11.8373 29.228 14.056 29.228C16.3093 29.228 17.9387 28.6213 18.944 27.408C19.984 26.16 20.504 24.4267 20.504 22.208V1.616C20.504 1.16533 20.7293 0.939998 21.18 0.939998H27.264C27.7147 0.939998 27.94 1.16533 27.94 1.616V22.52C27.94 26.8533 26.744 30.1293 24.352 32.348C21.9947 34.532 18.5627 35.624 14.056 35.624ZM35.233 35C34.7823 35 34.557 34.7747 34.557 34.324V1.616C34.557 1.16533 34.7823 0.939998 35.233 0.939998H43.501C43.8477 0.939998 44.1077 1.096 44.281 1.408L51.717 16.384C52.237 17.4587 52.757 18.5507 53.277 19.66C53.797 20.7347 54.265 21.7747 54.681 22.78C55.1317 23.7853 55.4957 24.7213 55.773 25.588H55.929C55.8597 24.8947 55.8077 24.1493 55.773 23.352C55.7383 22.52 55.7037 21.688 55.669 20.856C55.6343 19.9893 55.5997 19.1573 55.565 18.36C55.565 17.528 55.565 16.7653 55.565 16.072V1.616C55.565 1.16533 55.773 0.939998 56.189 0.939998H62.065C62.5157 0.939998 62.741 1.16533 62.741 1.616V34.324C62.741 34.7747 62.5157 35 62.065 35H53.901C53.5197 35 53.2597 34.844 53.121 34.532L45.893 20.18C45.4077 19.1747 44.9223 18.1173 44.437 17.008C43.9517 15.864 43.4663 14.7547 42.981 13.68C42.5303 12.5707 42.1143 11.548 41.733 10.612H41.577C41.6117 11.3747 41.629 12.1893 41.629 13.056C41.6637 13.888 41.681 14.7373 41.681 15.604C41.7157 16.436 41.733 17.268 41.733 18.1C41.733 18.932 41.733 19.7467 41.733 20.544V34.324C41.733 34.7747 41.5077 35 41.057 35H35.233ZM70.5841 35C70.2027 35 70.0121 34.792 70.0121 34.376V1.564C70.0121 1.148 70.2027 0.939998 70.5841 0.939998H75.6281C76.0441 0.939998 76.2521 1.148 76.2521 1.564V34.376C76.2521 34.792 76.0441 35 75.6281 35H70.5841ZM92.2993 35C91.918 35 91.6753 34.844 91.5713 34.532L80.7033 1.616C80.5647 1.16533 80.7207 0.939998 81.1713 0.939998H86.6313C87.0127 0.939998 87.2553 1.096 87.3593 1.408L93.5993 21.948C93.9807 23.196 94.3447 24.444 94.6913 25.692C95.038 26.94 95.3673 28.188 95.6793 29.436H95.7833C96.0953 28.188 96.4247 26.9573 96.7713 25.744C97.1527 24.496 97.5167 23.248 97.8633 22L104.259 1.46C104.363 1.11333 104.606 0.939998 104.987 0.939998H110.447C110.898 0.939998 111.054 1.16533 110.915 1.616L99.8393 34.532C99.7353 34.844 99.51 35 99.1633 35H92.2993ZM116.345 35C115.964 35 115.773 34.8093 115.773 34.428V1.512C115.773 1.13066 115.964 0.939998 116.345 0.939998H135.481C135.828 0.939998 136.001 1.13066 136.001 1.512V5.048C136.001 5.42933 135.828 5.62 135.481 5.62H121.025V15.5H134.233C134.58 15.5 134.753 15.6733 134.753 16.02V19.4C134.753 19.7813 134.58 19.972 134.233 19.972H121.025V30.32H135.481C135.828 30.32 136.001 30.5107 136.001 30.892V34.428C136.001 34.8093 135.828 35 135.481 35H116.345ZM144.224 35C143.843 35 143.652 34.8093 143.652 34.428V1.512C143.652 1.13066 143.843 0.939998 144.224 0.939998H154.624C158.923 0.939998 162.078 1.75466 164.088 3.384C166.099 5.01333 167.104 7.42266 167.104 10.612C167.104 13.0733 166.532 15.136 165.388 16.8C164.244 18.4293 162.58 19.556 160.396 20.18V20.232L168.976 34.324C169.08 34.4973 169.098 34.6533 169.028 34.792C168.959 34.9307 168.803 35 168.56 35H163.776C163.464 35 163.239 34.8787 163.1 34.636L154.884 20.908H148.904V34.428C148.904 34.8093 148.714 35 148.332 35H144.224ZM148.904 16.748H154.26C156.93 16.748 158.854 16.28 160.032 15.344C161.246 14.408 161.852 12.9173 161.852 10.872C161.852 8.896 161.298 7.492 160.188 6.66C159.079 5.828 157.207 5.412 154.572 5.412H148.904V16.748ZM185.585 35.624C182.742 35.624 180.402 35.2253 178.565 34.428C176.762 33.596 175.445 32.452 174.613 30.996C173.816 29.5053 173.486 27.7547 173.625 25.744C173.66 25.1547 173.885 24.86 174.301 24.86H178.305C178.721 24.86 178.929 25.12 178.929 25.64C178.929 27.5467 179.501 28.9333 180.645 29.8C181.789 30.6667 183.557 31.1 185.949 31.1C188.237 31.1 189.953 30.7013 191.097 29.904C192.276 29.1067 192.865 27.8933 192.865 26.264C192.865 25.4667 192.726 24.7907 192.449 24.236C192.206 23.6467 191.756 23.1267 191.097 22.676C190.438 22.2253 189.572 21.7747 188.497 21.324L180.853 18.152C179.224 17.4587 177.906 16.696 176.901 15.864C175.93 15.032 175.22 14.0787 174.769 13.004C174.353 11.9293 174.145 10.6987 174.145 9.312C174.18 6.4 175.15 4.18133 177.057 2.656C178.998 1.13067 181.824 0.368 185.533 0.368C188.098 0.368 190.3 0.731999 192.137 1.46C194.009 2.188 195.396 3.26267 196.297 4.684C197.233 6.10533 197.614 7.856 197.441 9.936C197.372 10.56 197.164 10.872 196.817 10.872H192.761C192.588 10.872 192.449 10.8027 192.345 10.664C192.276 10.5253 192.258 10.2827 192.293 9.936C192.397 8.34133 191.842 7.09333 190.629 6.192C189.416 5.29066 187.682 4.84 185.429 4.84C183.453 4.84 181.962 5.204 180.957 5.932C179.952 6.62533 179.432 7.68267 179.397 9.104C179.397 9.86667 179.536 10.5253 179.813 11.08C180.09 11.6347 180.558 12.1547 181.217 12.64C181.876 13.1253 182.777 13.6107 183.921 14.096L191.461 17.268C193.09 17.9267 194.39 18.672 195.361 19.504C196.366 20.336 197.077 21.2893 197.493 22.364C197.909 23.4387 198.117 24.7387 198.117 26.264C198.117 29.2107 197.112 31.516 195.101 33.18C193.09 34.8093 189.918 35.624 185.585 35.624ZM205.517 35C205.136 35 204.945 34.8093 204.945 34.428V1.512C204.945 1.13066 205.136 0.939998 205.517 0.939998H224.653C225 0.939998 225.173 1.13066 225.173 1.512V5.048C225.173 5.42933 225 5.62 224.653 5.62H210.197V15.5H223.405C223.752 15.5 223.925 15.6733 223.925 16.02V19.4C223.925 19.7813 223.752 19.972 223.405 19.972H210.197V30.32H224.653C225 30.32 225.173 30.5107 225.173 30.892V34.428C225.173 34.8093 225 35 224.653 35H205.517ZM6.52214 57.216C5.04614 57.216 3.92414 56.85 3.15614 56.118C2.38814 55.374 2.00414 54.306 2.00414 52.914V49.296C2.00414 47.904 2.38814 46.842 3.15614 46.11C3.93614 45.366 5.06414 44.994 6.54014 44.994C7.50014 44.994 8.33414 45.156 9.04214 45.48C9.76214 45.804 10.2961 46.266 10.6441 46.866C11.0041 47.466 11.1241 48.186 11.0041 49.026C10.9921 49.086 10.9741 49.146 10.9501 49.206C10.9261 49.254 10.8781 49.278 10.8061 49.278H9.45614C9.32414 49.278 9.26414 49.212 9.27614 49.08C9.31214 48.264 9.09614 47.634 8.62814 47.19C8.17214 46.734 7.48214 46.506 6.55814 46.506C5.64614 46.506 4.94414 46.746 4.45214 47.226C3.96014 47.694 3.71414 48.384 3.71414 49.296V52.914C3.71414 53.826 3.96014 54.522 4.45214 55.002C4.94414 55.47 5.64614 55.704 6.55814 55.704C7.48214 55.704 8.19014 55.476 8.68214 55.02C9.17414 54.564 9.37214 53.934 9.27614 53.13C9.26414 52.998 9.32414 52.932 9.45614 52.932H10.7881C10.9081 52.932 10.9801 53.016 11.0041 53.184C11.0761 54 10.9321 54.708 10.5721 55.308C10.2241 55.908 9.70214 56.376 9.00614 56.712C8.31014 57.048 7.48214 57.216 6.52214 57.216ZM16.8713 57.216C15.6473 57.216 14.7113 56.922 14.0633 56.334C13.4153 55.734 13.0913 54.828 13.0913 53.616V51.582C13.0913 50.37 13.4093 49.47 14.0453 48.882C14.6933 48.282 15.6353 47.982 16.8713 47.982C18.1073 47.982 19.0493 48.282 19.6973 48.882C20.3453 49.47 20.6693 50.37 20.6693 51.582V53.616C20.6693 54.828 20.3453 55.734 19.6973 56.334C19.0613 56.922 18.1193 57.216 16.8713 57.216ZM16.8713 55.722C17.6033 55.722 18.1313 55.536 18.4553 55.164C18.7913 54.792 18.9593 54.222 18.9593 53.454V51.726C18.9593 50.97 18.7913 50.406 18.4553 50.034C18.1313 49.662 17.6033 49.476 16.8713 49.476C16.1393 49.476 15.6113 49.662 15.2873 50.034C14.9633 50.406 14.8013 50.97 14.8013 51.726V53.454C14.8013 54.222 14.9633 54.792 15.2873 55.164C15.6113 55.536 16.1393 55.722 16.8713 55.722ZM23.1908 57C23.0708 57 23.0108 56.934 23.0108 56.802V50.412C23.0108 50.076 22.9988 49.734 22.9748 49.386C22.9628 49.026 22.9328 48.702 22.8848 48.414C22.8608 48.27 22.9268 48.198 23.0828 48.198H24.2888C24.3488 48.198 24.3908 48.204 24.4148 48.216C24.4508 48.228 24.4748 48.264 24.4868 48.324C24.5108 48.504 24.5408 48.696 24.5768 48.9C24.6128 49.104 24.6368 49.308 24.6488 49.512C25.1648 48.996 25.6628 48.612 26.1428 48.36C26.6228 48.108 27.1448 47.982 27.7088 47.982C28.3208 47.982 28.8128 48.12 29.1848 48.396C29.5568 48.672 29.8208 49.08 29.9768 49.62C30.5288 49.056 31.0508 48.642 31.5428 48.378C32.0348 48.114 32.5688 47.982 33.1448 47.982C33.9608 47.982 34.5728 48.234 34.9808 48.738C35.4008 49.23 35.6108 49.968 35.6108 50.952V56.802C35.6108 56.934 35.5448 57 35.4128 57H34.0808C33.9608 57 33.9008 56.934 33.9008 56.802V51.132C33.9008 50.58 33.7988 50.166 33.5948 49.89C33.4028 49.614 33.0908 49.476 32.6588 49.476C32.2748 49.476 31.8908 49.596 31.5068 49.836C31.1228 50.064 30.6728 50.418 30.1568 50.898V56.802C30.1568 56.934 30.0968 57 29.9768 57H28.6448C28.5128 57 28.4468 56.934 28.4468 56.802V51.132C28.4468 50.58 28.3448 50.166 28.1408 49.89C27.9488 49.614 27.6368 49.476 27.2048 49.476C26.8328 49.476 26.4488 49.596 26.0528 49.836C25.6688 50.064 25.2248 50.418 24.7208 50.898V56.802C24.7208 56.934 24.6548 57 24.5228 57H23.1908ZM38.3608 57C38.2408 57 38.1808 56.934 38.1808 56.802V50.412C38.1808 50.076 38.1688 49.734 38.1448 49.386C38.1328 49.026 38.1028 48.702 38.0548 48.414C38.0308 48.27 38.0968 48.198 38.2528 48.198H39.4588C39.5188 48.198 39.5608 48.204 39.5848 48.216C39.6208 48.228 39.6448 48.264 39.6568 48.324C39.6808 48.504 39.7108 48.696 39.7468 48.9C39.7828 49.104 39.8068 49.308 39.8188 49.512C40.3348 48.996 40.8328 48.612 41.3128 48.36C41.7928 48.108 42.3148 47.982 42.8788 47.982C43.4908 47.982 43.9828 48.12 44.3548 48.396C44.7268 48.672 44.9908 49.08 45.1468 49.62C45.6988 49.056 46.2208 48.642 46.7128 48.378C47.2048 48.114 47.7388 47.982 48.3148 47.982C49.1308 47.982 49.7428 48.234 50.1508 48.738C50.5708 49.23 50.7808 49.968 50.7808 50.952V56.802C50.7808 56.934 50.7148 57 50.5828 57H49.2508C49.1308 57 49.0708 56.934 49.0708 56.802V51.132C49.0708 50.58 48.9688 50.166 48.7648 49.89C48.5728 49.614 48.2608 49.476 47.8288 49.476C47.4448 49.476 47.0608 49.596 46.6768 49.836C46.2928 50.064 45.8428 50.418 45.3268 50.898V56.802C45.3268 56.934 45.2668 57 45.1468 57H43.8148C43.6828 57 43.6168 56.934 43.6168 56.802V51.132C43.6168 50.58 43.5148 50.166 43.3108 49.89C43.1188 49.614 42.8068 49.476 42.3748 49.476C42.0028 49.476 41.6188 49.596 41.2228 49.836C40.8388 50.064 40.3948 50.418 39.8908 50.898V56.802C39.8908 56.934 39.8248 57 39.6928 57H38.3608ZM55.7267 57.216C54.9587 57.216 54.3707 56.964 53.9627 56.46C53.5547 55.944 53.3507 55.2 53.3507 54.228V48.378C53.3507 48.258 53.4107 48.198 53.5307 48.198H54.8627C54.9947 48.198 55.0607 48.258 55.0607 48.378V54.066C55.0607 54.63 55.1567 55.05 55.3487 55.326C55.5527 55.59 55.8647 55.722 56.2847 55.722C56.7167 55.722 57.1487 55.59 57.5807 55.326C58.0127 55.05 58.5407 54.594 59.1647 53.958V55.434C58.7927 55.806 58.4147 56.13 58.0307 56.406C57.6587 56.67 57.2807 56.868 56.8967 57C56.5247 57.144 56.1347 57.216 55.7267 57.216ZM59.3267 57C59.2547 57 59.2007 56.988 59.1647 56.964C59.1287 56.928 59.1047 56.88 59.0927 56.82C59.0567 56.592 59.0267 56.358 59.0027 56.118C58.9787 55.878 58.9607 55.632 58.9487 55.38L58.8407 54.588V48.378C58.8407 48.258 58.9007 48.198 59.0207 48.198H60.3527C60.4847 48.198 60.5507 48.258 60.5507 48.378V54.786C60.5507 55.122 60.5567 55.464 60.5687 55.812C60.5927 56.148 60.6227 56.478 60.6587 56.802C60.6827 56.934 60.6167 57 60.4607 57H59.3267ZM69.0461 57C68.9141 57 68.8481 56.934 68.8481 56.802V51.132C68.8481 50.556 68.7281 50.136 68.4881 49.872C68.2601 49.608 67.9121 49.476 67.4441 49.476C66.9881 49.476 66.5381 49.614 66.0941 49.89C65.6621 50.154 65.1281 50.598 64.4921 51.222V49.782C64.8761 49.362 65.2481 49.02 65.6081 48.756C65.9801 48.492 66.3521 48.3 66.7241 48.18C67.0961 48.048 67.4921 47.982 67.9121 47.982C68.7761 47.982 69.4301 48.234 69.8741 48.738C70.3301 49.23 70.5581 49.974 70.5581 50.97V56.802C70.5581 56.934 70.4981 57 70.3781 57H69.0461ZM63.3041 57C63.1841 57 63.1241 56.934 63.1241 56.802V50.412C63.1241 50.088 63.1061 49.734 63.0701 49.35C63.0461 48.966 63.0221 48.66 62.9981 48.432C62.9741 48.276 63.0341 48.198 63.1781 48.198H64.4021C64.4621 48.198 64.5101 48.21 64.5461 48.234C64.5821 48.258 64.6061 48.306 64.6181 48.378C64.6421 48.474 64.6661 48.624 64.6901 48.828C64.7141 49.02 64.7381 49.224 64.7621 49.44C64.7861 49.656 64.7981 49.842 64.7981 49.998L64.8341 50.556V56.802C64.8341 56.934 64.7681 57 64.6361 57H63.3041ZM73.3237 57C73.2037 57 73.1437 56.934 73.1437 56.802V48.378C73.1437 48.258 73.2037 48.198 73.3237 48.198H74.6557C74.7877 48.198 74.8537 48.258 74.8537 48.378V56.802C74.8537 56.934 74.7877 57 74.6557 57H73.3237ZM73.9897 46.776C73.6297 46.776 73.3597 46.68 73.1797 46.488C73.0117 46.296 72.9277 46.044 72.9277 45.732V45.534C72.9277 45.222 73.0117 44.97 73.1797 44.778C73.3597 44.586 73.6297 44.49 73.9897 44.49C74.3617 44.49 74.6317 44.586 74.7997 44.778C74.9677 44.97 75.0517 45.222 75.0517 45.534V45.732C75.0517 46.044 74.9677 46.296 74.7997 46.488C74.6317 46.68 74.3617 46.776 73.9897 46.776ZM80.6367 57.216C80.0007 57.216 79.4907 57.114 79.1067 56.91C78.7227 56.694 78.4467 56.37 78.2787 55.938C78.1107 55.506 78.0267 54.966 78.0267 54.318V49.656H76.6587C76.5267 49.656 76.4607 49.59 76.4607 49.458V48.378C76.4607 48.258 76.5267 48.198 76.6587 48.198H78.0627L78.2787 46.038C78.2907 45.906 78.3627 45.84 78.4947 45.84H79.5387C79.6587 45.84 79.7187 45.906 79.7187 46.038L79.7367 48.198H82.3467C82.4787 48.198 82.5447 48.258 82.5447 48.378V49.458C82.5447 49.59 82.4787 49.656 82.3467 49.656H79.7367V54.246C79.7367 54.786 79.8327 55.17 80.0247 55.398C80.2167 55.626 80.5407 55.74 80.9967 55.74C81.2367 55.74 81.4707 55.716 81.6987 55.668C81.9387 55.608 82.1487 55.536 82.3287 55.452C82.4007 55.428 82.4547 55.428 82.4907 55.452C82.5387 55.476 82.5627 55.524 82.5627 55.596V56.694C82.5627 56.802 82.5087 56.874 82.4007 56.91C82.1847 56.994 81.9267 57.066 81.6267 57.126C81.3387 57.186 81.0087 57.216 80.6367 57.216ZM85.8654 60.33C85.7214 60.33 85.6794 60.252 85.7394 60.096L86.9994 56.91L83.6874 48.414C83.6274 48.27 83.6694 48.198 83.8134 48.198H85.2714C85.3674 48.198 85.4334 48.246 85.4694 48.342L86.9994 52.5C87.1434 52.872 87.2814 53.262 87.4134 53.67C87.5454 54.066 87.6714 54.462 87.7914 54.858H87.8274C87.9474 54.462 88.0794 54.066 88.2234 53.67C88.3674 53.274 88.5054 52.884 88.6374 52.5L90.1494 48.342C90.1854 48.246 90.2634 48.198 90.3834 48.198H91.7694C91.8294 48.198 91.8714 48.222 91.8954 48.27C91.9314 48.306 91.9374 48.354 91.9134 48.414L87.3954 60.186C87.3594 60.282 87.2934 60.33 87.1974 60.33H85.8654ZM101.057 57.216C100.085 57.216 99.2807 57.078 98.6447 56.802C98.0207 56.514 97.5647 56.118 97.2767 55.614C97.0007 55.098 96.8867 54.498 96.9347 53.814C96.9467 53.61 97.0247 53.508 97.1687 53.508H98.4647C98.6087 53.508 98.6807 53.598 98.6807 53.778C98.6807 54.474 98.8847 54.972 99.2927 55.272C99.7127 55.572 100.343 55.722 101.183 55.722C101.999 55.722 102.611 55.584 103.019 55.308C103.439 55.02 103.649 54.582 103.649 53.994C103.649 53.706 103.601 53.46 103.505 53.256C103.409 53.052 103.247 52.872 103.019 52.716C102.791 52.548 102.479 52.386 102.083 52.23L99.4547 51.132C98.8907 50.892 98.4347 50.628 98.0867 50.34C97.7507 50.052 97.5047 49.722 97.3487 49.35C97.2047 48.978 97.1327 48.558 97.1327 48.09C97.1447 47.082 97.4807 46.32 98.1407 45.804C98.8007 45.276 99.7667 45.012 101.039 45.012C101.915 45.012 102.671 45.138 103.307 45.39C103.943 45.642 104.423 46.014 104.747 46.506C105.071 46.986 105.197 47.586 105.125 48.306C105.101 48.522 105.035 48.63 104.927 48.63H103.613C103.541 48.63 103.487 48.606 103.451 48.558C103.427 48.51 103.421 48.426 103.433 48.306C103.481 47.73 103.283 47.286 102.839 46.974C102.407 46.65 101.795 46.488 101.003 46.488C100.295 46.488 99.7607 46.614 99.4007 46.866C99.0407 47.118 98.8547 47.502 98.8427 48.018C98.8427 48.282 98.8907 48.516 98.9867 48.72C99.0947 48.924 99.2627 49.11 99.4907 49.278C99.7307 49.446 100.055 49.62 100.463 49.8L103.073 50.898C103.625 51.126 104.069 51.384 104.405 51.672C104.753 51.948 104.999 52.272 105.143 52.644C105.299 53.016 105.371 53.46 105.359 53.976C105.359 54.996 105.011 55.794 104.315 56.37C103.631 56.934 102.545 57.216 101.057 57.216ZM111.107 57.216C109.883 57.216 108.953 56.916 108.317 56.316C107.681 55.704 107.363 54.828 107.363 53.688V51.51C107.363 50.37 107.687 49.5 108.335 48.9C108.983 48.288 109.919 47.982 111.143 47.982C111.875 47.982 112.499 48.096 113.015 48.324C113.543 48.552 113.945 48.864 114.221 49.26C114.497 49.656 114.635 50.118 114.635 50.646C114.635 50.91 114.569 51.042 114.437 51.042H113.123C113.075 51.042 113.033 51.018 112.997 50.97C112.961 50.922 112.943 50.856 112.943 50.772C112.943 50.352 112.781 50.034 112.457 49.818C112.133 49.59 111.695 49.476 111.143 49.476C110.447 49.476 109.925 49.656 109.577 50.016C109.241 50.364 109.073 50.916 109.073 51.672V53.526C109.073 54.27 109.241 54.822 109.577 55.182C109.925 55.542 110.441 55.722 111.125 55.722C111.689 55.722 112.127 55.602 112.439 55.362C112.763 55.11 112.925 54.804 112.925 54.444C112.925 54.252 112.985 54.156 113.105 54.156H114.419C114.551 54.156 114.617 54.216 114.617 54.336C114.617 55.212 114.317 55.914 113.717 56.442C113.117 56.958 112.247 57.216 111.107 57.216ZM117.128 57C117.008 57 116.948 56.934 116.948 56.802V48.378C116.948 48.258 117.008 48.198 117.128 48.198H118.46C118.592 48.198 118.658 48.258 118.658 48.378V56.802C118.658 56.934 118.592 57 118.46 57H117.128ZM117.794 46.776C117.434 46.776 117.164 46.68 116.984 46.488C116.816 46.296 116.732 46.044 116.732 45.732V45.534C116.732 45.222 116.816 44.97 116.984 44.778C117.164 44.586 117.434 44.49 117.794 44.49C118.166 44.49 118.436 44.586 118.604 44.778C118.772 44.97 118.856 45.222 118.856 45.534V45.732C118.856 46.044 118.772 46.296 118.604 46.488C118.436 46.68 118.166 46.776 117.794 46.776ZM124.675 57.216C123.475 57.216 122.563 56.94 121.939 56.388C121.315 55.836 121.003 55.026 121.003 53.958V51.51C121.003 50.358 121.309 49.482 121.921 48.882C122.545 48.282 123.457 47.982 124.657 47.982C125.857 47.982 126.763 48.276 127.375 48.864C127.999 49.452 128.311 50.304 128.311 51.42V52.824C128.311 52.944 128.251 53.004 128.131 53.004H122.695V53.58C122.695 54.336 122.857 54.888 123.181 55.236C123.505 55.584 124.027 55.758 124.747 55.758C125.287 55.758 125.701 55.674 125.989 55.506C126.289 55.326 126.439 55.062 126.439 54.714C126.439 54.582 126.505 54.516 126.637 54.516H127.969C128.065 54.516 128.125 54.57 128.149 54.678C128.197 55.482 127.909 56.106 127.285 56.55C126.673 56.994 125.803 57.216 124.675 57.216ZM122.695 51.654H126.619V51.564C126.619 50.832 126.457 50.298 126.133 49.962C125.809 49.614 125.329 49.44 124.693 49.44C124.021 49.44 123.517 49.62 123.181 49.98C122.857 50.328 122.695 50.862 122.695 51.582V51.654ZM136.564 57C136.432 57 136.366 56.934 136.366 56.802V51.132C136.366 50.556 136.246 50.136 136.006 49.872C135.778 49.608 135.43 49.476 134.962 49.476C134.506 49.476 134.056 49.614 133.612 49.89C133.18 50.154 132.646 50.598 132.01 51.222V49.782C132.394 49.362 132.766 49.02 133.126 48.756C133.498 48.492 133.87 48.3 134.242 48.18C134.614 48.048 135.01 47.982 135.43 47.982C136.294 47.982 136.948 48.234 137.392 48.738C137.848 49.23 138.076 49.974 138.076 50.97V56.802C138.076 56.934 138.016 57 137.896 57H136.564ZM130.822 57C130.702 57 130.642 56.934 130.642 56.802V50.412C130.642 50.088 130.624 49.734 130.588 49.35C130.564 48.966 130.54 48.66 130.516 48.432C130.492 48.276 130.552 48.198 130.696 48.198H131.92C131.98 48.198 132.028 48.21 132.064 48.234C132.1 48.258 132.124 48.306 132.136 48.378C132.16 48.474 132.184 48.624 132.208 48.828C132.232 49.02 132.256 49.224 132.28 49.44C132.304 49.656 132.316 49.842 132.316 49.998L132.352 50.556V56.802C132.352 56.934 132.286 57 132.154 57H130.822ZM144.171 57.216C142.947 57.216 142.017 56.916 141.381 56.316C140.745 55.704 140.427 54.828 140.427 53.688V51.51C140.427 50.37 140.751 49.5 141.399 48.9C142.047 48.288 142.983 47.982 144.207 47.982C144.939 47.982 145.563 48.096 146.079 48.324C146.607 48.552 147.009 48.864 147.285 49.26C147.561 49.656 147.699 50.118 147.699 50.646C147.699 50.91 147.633 51.042 147.501 51.042H146.187C146.139 51.042 146.097 51.018 146.061 50.97C146.025 50.922 146.007 50.856 146.007 50.772C146.007 50.352 145.845 50.034 145.521 49.818C145.197 49.59 144.759 49.476 144.207 49.476C143.511 49.476 142.989 49.656 142.641 50.016C142.305 50.364 142.137 50.916 142.137 51.672V53.526C142.137 54.27 142.305 54.822 142.641 55.182C142.989 55.542 143.505 55.722 144.189 55.722C144.753 55.722 145.191 55.602 145.503 55.362C145.827 55.11 145.989 54.804 145.989 54.444C145.989 54.252 146.049 54.156 146.169 54.156H147.483C147.615 54.156 147.681 54.216 147.681 54.336C147.681 55.212 147.381 55.914 146.781 56.442C146.181 56.958 145.311 57.216 144.171 57.216ZM153.38 57.216C152.18 57.216 151.268 56.94 150.644 56.388C150.02 55.836 149.708 55.026 149.708 53.958V51.51C149.708 50.358 150.014 49.482 150.626 48.882C151.25 48.282 152.162 47.982 153.362 47.982C154.562 47.982 155.468 48.276 156.08 48.864C156.704 49.452 157.016 50.304 157.016 51.42V52.824C157.016 52.944 156.956 53.004 156.836 53.004H151.4V53.58C151.4 54.336 151.562 54.888 151.886 55.236C152.21 55.584 152.732 55.758 153.452 55.758C153.992 55.758 154.406 55.674 154.694 55.506C154.994 55.326 155.144 55.062 155.144 54.714C155.144 54.582 155.21 54.516 155.342 54.516H156.674C156.77 54.516 156.83 54.57 156.854 54.678C156.902 55.482 156.614 56.106 155.99 56.55C155.378 56.994 154.508 57.216 153.38 57.216ZM151.4 51.654H155.324V51.564C155.324 50.832 155.162 50.298 154.838 49.962C154.514 49.614 154.034 49.44 153.398 49.44C152.726 49.44 152.222 49.62 151.886 49.98C151.562 50.328 151.4 50.862 151.4 51.582V51.654ZM163.181 57C163.133 57 163.091 56.982 163.055 56.946C163.019 56.91 163.001 56.862 163.001 56.802L163.253 45.408C163.253 45.276 163.313 45.21 163.433 45.21H165.467C165.563 45.21 165.635 45.258 165.683 45.354L168.779 52.284L171.839 45.354C171.887 45.258 171.959 45.21 172.055 45.21H174.089C174.209 45.21 174.269 45.276 174.269 45.408L174.521 56.802C174.521 56.862 174.503 56.91 174.467 56.946C174.443 56.982 174.401 57 174.341 57H173.027C172.907 57 172.847 56.934 172.847 56.802L172.667 49.998C172.655 49.554 172.655 49.11 172.667 48.666C172.691 48.21 172.715 47.754 172.739 47.298H172.685C172.505 47.754 172.319 48.204 172.127 48.648C171.935 49.092 171.731 49.536 171.515 49.98L168.995 55.416C168.947 55.512 168.875 55.56 168.779 55.56H168.725C168.629 55.56 168.563 55.512 168.527 55.416L165.953 49.908C165.761 49.476 165.569 49.044 165.377 48.612C165.197 48.168 165.023 47.73 164.855 47.298H164.801C164.825 47.73 164.843 48.174 164.855 48.63C164.867 49.074 164.867 49.512 164.855 49.944L164.675 56.802C164.675 56.934 164.615 57 164.495 57H163.181ZM179.406 57.216C178.638 57.216 178.05 56.964 177.642 56.46C177.234 55.944 177.03 55.2 177.03 54.228V48.378C177.03 48.258 177.09 48.198 177.21 48.198H178.542C178.674 48.198 178.74 48.258 178.74 48.378V54.066C178.74 54.63 178.836 55.05 179.028 55.326C179.232 55.59 179.544 55.722 179.964 55.722C180.396 55.722 180.828 55.59 181.26 55.326C181.692 55.05 182.22 54.594 182.844 53.958V55.434C182.472 55.806 182.094 56.13 181.71 56.406C181.338 56.67 180.96 56.868 180.576 57C180.204 57.144 179.814 57.216 179.406 57.216ZM183.006 57C182.934 57 182.88 56.988 182.844 56.964C182.808 56.928 182.784 56.88 182.772 56.82C182.736 56.592 182.706 56.358 182.682 56.118C182.658 55.878 182.64 55.632 182.628 55.38L182.52 54.588V48.378C182.52 48.258 182.58 48.198 182.7 48.198H184.032C184.164 48.198 184.23 48.258 184.23 48.378V54.786C184.23 55.122 184.236 55.464 184.248 55.812C184.272 56.148 184.302 56.478 184.338 56.802C184.362 56.934 184.296 57 184.14 57H183.006ZM189.72 57.216C188.604 57.216 187.77 56.982 187.218 56.514C186.678 56.034 186.414 55.314 186.426 54.354C186.426 54.246 186.486 54.192 186.606 54.192H187.938C188.046 54.192 188.1 54.246 188.1 54.354C188.1 54.858 188.226 55.224 188.478 55.452C188.742 55.68 189.156 55.794 189.72 55.794C190.284 55.794 190.704 55.704 190.98 55.524C191.268 55.332 191.412 55.062 191.412 54.714C191.412 54.45 191.328 54.228 191.16 54.048C191.004 53.868 190.746 53.7 190.386 53.544L188.334 52.698C187.686 52.422 187.224 52.11 186.948 51.762C186.672 51.414 186.534 50.958 186.534 50.394C186.534 49.59 186.792 48.99 187.308 48.594C187.824 48.186 188.592 47.982 189.612 47.982C190.668 47.982 191.478 48.198 192.042 48.63C192.618 49.05 192.906 49.656 192.906 50.448C192.906 50.568 192.84 50.628 192.708 50.628H191.394C191.346 50.628 191.304 50.61 191.268 50.574C191.232 50.526 191.214 50.448 191.214 50.34C191.214 50.04 191.076 49.806 190.8 49.638C190.536 49.47 190.164 49.386 189.684 49.386C189.204 49.386 188.844 49.47 188.604 49.638C188.364 49.806 188.244 50.058 188.244 50.394C188.244 50.646 188.31 50.838 188.442 50.97C188.574 51.09 188.844 51.24 189.252 51.42L191.304 52.284C191.94 52.536 192.402 52.848 192.69 53.22C192.978 53.58 193.122 54.048 193.122 54.624C193.122 55.464 192.828 56.106 192.24 56.55C191.652 56.994 190.812 57.216 189.72 57.216ZM198.627 57.216C197.427 57.216 196.515 56.94 195.891 56.388C195.267 55.836 194.955 55.026 194.955 53.958V51.51C194.955 50.358 195.261 49.482 195.873 48.882C196.497 48.282 197.409 47.982 198.609 47.982C199.809 47.982 200.715 48.276 201.327 48.864C201.951 49.452 202.263 50.304 202.263 51.42V52.824C202.263 52.944 202.203 53.004 202.083 53.004H196.647V53.58C196.647 54.336 196.809 54.888 197.133 55.236C197.457 55.584 197.979 55.758 198.699 55.758C199.239 55.758 199.653 55.674 199.941 55.506C200.241 55.326 200.391 55.062 200.391 54.714C200.391 54.582 200.457 54.516 200.589 54.516H201.921C202.017 54.516 202.077 54.57 202.101 54.678C202.149 55.482 201.861 56.106 201.237 56.55C200.625 56.994 199.755 57.216 198.627 57.216ZM196.647 51.654H200.571V51.564C200.571 50.832 200.409 50.298 200.085 49.962C199.761 49.614 199.281 49.44 198.645 49.44C197.973 49.44 197.469 49.62 197.133 49.98C196.809 50.328 196.647 50.862 196.647 51.582V51.654ZM206.969 57.216C206.201 57.216 205.613 56.964 205.205 56.46C204.797 55.944 204.593 55.2 204.593 54.228V48.378C204.593 48.258 204.653 48.198 204.773 48.198H206.105C206.237 48.198 206.303 48.258 206.303 48.378V54.066C206.303 54.63 206.399 55.05 206.591 55.326C206.795 55.59 207.107 55.722 207.527 55.722C207.959 55.722 208.391 55.59 208.823 55.326C209.255 55.05 209.783 54.594 210.407 53.958V55.434C210.035 55.806 209.657 56.13 209.273 56.406C208.901 56.67 208.523 56.868 208.139 57C207.767 57.144 207.377 57.216 206.969 57.216ZM210.569 57C210.497 57 210.443 56.988 210.407 56.964C210.371 56.928 210.347 56.88 210.335 56.82C210.299 56.592 210.269 56.358 210.245 56.118C210.221 55.878 210.203 55.632 210.191 55.38L210.083 54.588V48.378C210.083 48.258 210.143 48.198 210.263 48.198H211.595C211.727 48.198 211.793 48.258 211.793 48.378V54.786C211.793 55.122 211.799 55.464 211.811 55.812C211.835 56.148 211.865 56.478 211.901 56.802C211.925 56.934 211.859 57 211.703 57H210.569ZM214.546 57C214.426 57 214.366 56.934 214.366 56.802V50.412C214.366 50.076 214.354 49.734 214.33 49.386C214.318 49.026 214.288 48.702 214.24 48.414C214.216 48.27 214.282 48.198 214.438 48.198H215.644C215.704 48.198 215.746 48.204 215.77 48.216C215.806 48.228 215.83 48.264 215.842 48.324C215.866 48.504 215.896 48.696 215.932 48.9C215.968 49.104 215.992 49.308 216.004 49.512C216.52 48.996 217.018 48.612 217.498 48.36C217.978 48.108 218.5 47.982 219.064 47.982C219.676 47.982 220.168 48.12 220.54 48.396C220.912 48.672 221.176 49.08 221.332 49.62C221.884 49.056 222.406 48.642 222.898 48.378C223.39 48.114 223.924 47.982 224.5 47.982C225.316 47.982 225.928 48.234 226.336 48.738C226.756 49.23 226.966 49.968 226.966 50.952V56.802C226.966 56.934 226.9 57 226.768 57H225.436C225.316 57 225.256 56.934 225.256 56.802V51.132C225.256 50.58 225.154 50.166 224.95 49.89C224.758 49.614 224.446 49.476 224.014 49.476C223.63 49.476 223.246 49.596 222.862 49.836C222.478 50.064 222.028 50.418 221.512 50.898V56.802C221.512 56.934 221.452 57 221.332 57H220C219.868 57 219.802 56.934 219.802 56.802V51.132C219.802 50.58 219.7 50.166 219.496 49.89C219.304 49.614 218.992 49.476 218.56 49.476C218.188 49.476 217.804 49.596 217.408 49.836C217.024 50.064 216.58 50.418 216.076 50.898V56.802C216.076 56.934 216.01 57 215.878 57H214.546Z" fill="white"/>
</svg>
