<svg width="129" height="101" viewBox="0 0 129 101" fill="none" xmlns="http://www.w3.org/2000/svg">
<path d="M17.056 47.624C12.5147 47.624 9.06533 46.5493 6.708 44.4C4.35067 42.216 3.172 38.9053 3.172 34.468V13.616C3.172 13.1653 3.39733 12.94 3.848 12.94H9.932C10.14 12.94 10.296 13.0093 10.4 13.148C10.5387 13.252 10.608 13.408 10.608 13.616V34.208C10.608 36.4267 11.128 38.16 12.168 39.408C13.208 40.6213 14.8373 41.228 17.056 41.228C19.3093 41.228 20.9387 40.6213 21.944 39.408C22.984 38.16 23.504 36.4267 23.504 34.208V13.616C23.504 13.1653 23.7293 12.94 24.18 12.94H30.264C30.7147 12.94 30.94 13.1653 30.94 13.616V34.52C30.94 38.8533 29.744 42.1293 27.352 44.348C24.9947 46.532 21.5627 47.624 17.056 47.624ZM38.233 47C37.7823 47 37.557 46.7747 37.557 46.324V13.616C37.557 13.1653 37.7823 12.94 38.233 12.94H46.501C46.8477 12.94 47.1077 13.096 47.281 13.408L54.717 28.384C55.237 29.4587 55.757 30.5507 56.277 31.66C56.797 32.7347 57.265 33.7747 57.681 34.78C58.1317 35.7853 58.4957 36.7213 58.773 37.588H58.929C58.8597 36.8947 58.8077 36.1493 58.773 35.352C58.7383 34.52 58.7037 33.688 58.669 32.856C58.6343 31.9893 58.5997 31.1573 58.565 30.36C58.565 29.528 58.565 28.7653 58.565 28.072V13.616C58.565 13.1653 58.773 12.94 59.189 12.94H65.065C65.5157 12.94 65.741 13.1653 65.741 13.616V46.324C65.741 46.7747 65.5157 47 65.065 47H56.901C56.5197 47 56.2597 46.844 56.121 46.532L48.893 32.18C48.4077 31.1747 47.9223 30.1173 47.437 29.008C46.9517 27.864 46.4663 26.7547 45.981 25.68C45.5303 24.5707 45.1143 23.548 44.733 22.612H44.577C44.6117 23.3747 44.629 24.1893 44.629 25.056C44.6637 25.888 44.681 26.7373 44.681 27.604C44.7157 28.436 44.733 29.268 44.733 30.1C44.733 30.932 44.733 31.7467 44.733 32.544V46.324C44.733 46.7747 44.5077 47 44.057 47H38.233ZM73.5841 47C73.2027 47 73.0121 46.792 73.0121 46.376V13.564C73.0121 13.148 73.2027 12.94 73.5841 12.94H78.6281C79.0441 12.94 79.2521 13.148 79.2521 13.564V46.376C79.2521 46.792 79.0441 47 78.6281 47H73.5841ZM95.2993 47C94.918 47 94.6753 46.844 94.5713 46.532L83.7033 13.616C83.5647 13.1653 83.7207 12.94 84.1713 12.94H89.6313C90.0127 12.94 90.2553 13.096 90.3593 13.408L96.5993 33.948C96.9807 35.196 97.3447 36.444 97.6913 37.692C98.038 38.94 98.3673 40.188 98.6793 41.436H98.7833C99.0953 40.188 99.4247 38.9573 99.7713 37.744C100.153 36.496 100.517 35.248 100.863 34L107.259 13.46C107.363 13.1133 107.606 12.94 107.987 12.94H113.447C113.898 12.94 114.054 13.1653 113.915 13.616L102.839 46.532C102.735 46.844 102.51 47 102.163 47H95.2993Z" fill="#EFEEEE"/>
<path d="M4.732 90C4.35067 90 4.16 89.8093 4.16 89.428V56.512C4.16 56.1307 4.35067 55.94 4.732 55.94H23.868C24.2147 55.94 24.388 56.1307 24.388 56.512V60.048C24.388 60.4293 24.2147 60.62 23.868 60.62H9.412V70.5H22.62C22.9667 70.5 23.14 70.6733 23.14 71.02V74.4C23.14 74.7813 22.9667 74.972 22.62 74.972H9.412V85.32H23.868C24.2147 85.32 24.388 85.5107 24.388 85.892V89.428C24.388 89.8093 24.2147 90 23.868 90H4.732ZM32.6109 90C32.2296 90 32.0389 89.8093 32.0389 89.428V56.512C32.0389 56.1307 32.2296 55.94 32.6109 55.94H43.0109C47.3096 55.94 50.4642 56.7547 52.4749 58.384C54.4856 60.0133 55.4909 62.4227 55.4909 65.612C55.4909 68.0733 54.9189 70.136 53.7749 71.8C52.6309 73.4293 50.9669 74.556 48.7829 75.18V75.232L57.3629 89.324C57.4669 89.4973 57.4842 89.6533 57.4149 89.792C57.3456 89.9307 57.1896 90 56.9469 90H52.1629C51.8509 90 51.6256 89.8787 51.4869 89.636L43.2709 75.908H37.2909V89.428C37.2909 89.8093 37.1002 90 36.7189 90H32.6109ZM37.2909 71.748H42.6469C45.3162 71.748 47.2402 71.28 48.4189 70.344C49.6322 69.408 50.2389 67.9173 50.2389 65.872C50.2389 63.896 49.6842 62.492 48.5749 61.66C47.4656 60.828 45.5936 60.412 42.9589 60.412H37.2909V71.748ZM73.9716 90.624C71.1636 90.624 68.841 90.2253 67.0036 89.428C65.201 88.596 63.8836 87.452 63.0516 85.996C62.2543 84.5053 61.925 82.772 62.0636 80.796C62.0983 80.2067 62.3236 79.912 62.7396 79.912H66.4836C66.8996 79.912 67.1076 80.172 67.1076 80.692C67.1076 82.7027 67.697 84.1413 68.8756 85.008C70.089 85.8747 71.909 86.308 74.3356 86.308C76.693 86.308 78.461 85.9093 79.6396 85.112C80.853 84.28 81.4596 83.0147 81.4596 81.316C81.4596 80.484 81.321 79.7733 81.0436 79.184C80.7663 78.5947 80.2983 78.0747 79.6396 77.624C78.981 77.1387 78.0796 76.6707 76.9356 76.22L69.3436 73.048C67.7143 72.3547 66.397 71.592 65.3916 70.76C64.421 69.928 63.7103 68.9747 63.2596 67.9C62.8436 66.8253 62.6356 65.612 62.6356 64.26C62.6703 61.348 63.641 59.1467 65.5476 57.656C67.4543 56.1307 70.245 55.368 73.9196 55.368C76.4503 55.368 78.6343 55.732 80.4716 56.46C82.309 57.188 83.6956 58.2627 84.6316 59.684C85.5676 61.0707 85.9316 62.804 85.7236 64.884C85.6543 65.508 85.4636 65.82 85.1516 65.82H81.3556C81.1476 65.82 80.9916 65.7507 80.8876 65.612C80.8183 65.4733 80.801 65.2307 80.8356 64.884C80.9743 63.22 80.4023 61.9373 79.1196 61.036C77.8716 60.1 76.1036 59.632 73.8156 59.632C71.7703 59.632 70.2276 59.996 69.1876 60.724C68.1476 61.452 67.6103 62.5613 67.5756 64.052C67.5756 64.8147 67.7143 65.4907 67.9916 66.08C68.3036 66.6693 68.789 67.2067 69.4476 67.692C70.141 68.1773 71.077 68.68 72.2556 69.2L79.7956 72.372C81.3903 73.0307 82.673 73.776 83.6436 74.608C84.649 75.4053 85.3596 76.3413 85.7756 77.416C86.2263 78.4907 86.4343 79.7733 86.3996 81.264C86.3996 84.2107 85.3943 86.516 83.3836 88.18C81.4076 89.8093 78.2703 90.624 73.9716 90.624ZM93.9051 90C93.5584 90 93.3851 89.8093 93.3851 89.428V56.512C93.3851 56.1307 93.5584 55.94 93.9051 55.94H112.833C113.18 55.94 113.353 56.1307 113.353 56.512V59.84C113.353 60.2213 113.18 60.412 112.833 60.412H98.3251V70.552H111.585C111.932 70.552 112.105 70.7427 112.105 71.124V74.296C112.105 74.6773 111.932 74.868 111.585 74.868H98.3251V85.528H112.833C113.18 85.528 113.353 85.7187 113.353 86.1V89.428C113.353 89.8093 113.18 90 112.833 90H93.9051Z" fill="#EFEEEE"/>
</svg>
