<svg width="40" height="40" viewBox="0 0 40 40" fill="none" xmlns="http://www.w3.org/2000/svg">
<path d="M20.2933 6.66667C21.4853 6.66667 25.5213 6.988 27.4227 11.1147C28.0573 12.492 27.9 14.904 27.7733 16.8427L27.768 16.928C27.7507 17.1987 27.7333 17.46 27.7187 17.7107C27.7493 17.7413 27.992 17.9667 28.5413 17.988C28.9587 17.972 29.44 17.844 29.9653 17.6053C30.12 17.5347 30.2907 17.52 30.408 17.52C30.5867 17.52 30.7667 17.5533 30.916 17.6147L30.9253 17.6187C31.3507 17.764 31.6293 18.0533 31.636 18.356C31.6413 18.64 31.4173 19.068 30.3187 19.488C30.2053 19.532 30.06 19.576 29.904 19.624C29.276 19.8173 28.328 20.1093 28.0373 20.772C27.8787 21.1347 27.9293 21.576 28.1893 22.0853C28.192 22.0907 28.1947 22.0947 28.196 22.1C28.2747 22.2787 30.1733 26.4707 34.412 27.1467C34.568 27.172 34.68 27.3067 34.6707 27.46C34.6667 27.5173 34.652 27.5747 34.628 27.632C34.4533 28.028 33.6653 28.5893 30.908 29.0013C30.6827 29.0347 30.5947 29.3187 30.4613 29.9147C30.412 30.132 30.3627 30.3453 30.2947 30.5693C30.236 30.7627 30.1107 30.8547 29.9 30.8547H29.8667C29.7213 30.8547 29.512 30.8293 29.2493 30.78C28.7827 30.692 28.26 30.6107 27.5933 30.6107C27.2053 30.6107 26.8027 30.644 26.3987 30.708C25.5707 30.8413 24.8693 31.3227 24.1267 31.8307C23.0413 32.5693 21.9267 33.3333 20.188 33.3333C20.112 33.3333 20.0373 33.3307 19.964 33.3267C19.9173 33.3307 19.868 33.3333 19.8187 33.3333C18.0813 33.3333 16.9653 32.5693 15.8867 31.832C15.1427 31.3227 14.44 30.84 13.6107 30.708C13.2067 30.644 12.8053 30.6107 12.416 30.6107C11.716 30.6107 11.1627 30.7147 10.76 30.7907C10.5147 30.8373 10.3027 30.8773 10.1427 30.8773C9.97466 30.8773 9.79333 30.8427 9.71333 30.58C9.64533 30.3533 9.59466 30.1333 9.54666 29.9213C9.42266 29.3747 9.33599 29.0387 9.09999 29.004C6.34399 28.592 5.55466 28.0293 5.37999 27.6307C5.35599 27.5733 5.34133 27.5173 5.33733 27.46C5.32933 27.3067 5.44133 27.172 5.59599 27.1467C9.83199 26.4707 11.732 22.276 11.812 22.0987C11.8147 22.0933 11.8173 22.0893 11.8187 22.084C12.0773 21.5747 12.1293 21.132 11.9707 20.7707C11.68 20.1067 10.732 19.816 10.104 19.6227C9.95066 19.576 9.80399 19.5307 9.68933 19.4867C8.43599 19.0067 8.33333 18.5147 8.38133 18.264C8.46533 17.836 9.05466 17.5373 9.53199 17.5373C9.66266 17.5373 9.77733 17.56 9.87466 17.604C10.4387 17.86 10.9467 17.9893 11.384 17.9893C11.9893 17.9893 12.2547 17.7427 12.2853 17.7107C12.2693 17.4333 12.2507 17.144 12.232 16.844C12.1067 14.9053 11.9507 12.496 12.5827 11.1187C14.4813 6.99333 18.5107 6.67333 19.6987 6.67333C19.732 6.672 20.2227 6.66667 20.2227 6.66667H20.2933ZM20.2933 4H20.2227C20.2053 4 19.9093 4.00533 19.7 4.00933V4.00667C18.1093 4.00667 12.7227 4.43867 10.1613 10.0027C9.51599 11.4053 9.41199 13.144 9.45999 14.872C7.92533 14.9027 6.12933 15.9093 5.76666 17.748C5.63466 18.4267 5.46133 20.7213 8.73599 21.9773C8.75333 21.984 8.77199 21.9907 8.79066 21.9973C8.13599 22.932 6.93199 24.2333 5.17733 24.5133C3.66933 24.7493 2.59066 26.08 2.67599 27.608C2.69999 27.9893 2.78533 28.344 2.93066 28.6813C3.61466 30.2413 5.27199 30.9507 7.16666 31.364C7.57599 32.6893 8.74133 33.5413 10.144 33.5413C10.5507 33.5413 10.9187 33.472 11.244 33.4107C11.6053 33.3427 11.9653 33.2747 12.4173 33.2747C12.6653 33.2747 12.9253 33.296 13.1933 33.3387C13.4253 33.376 13.9507 33.7347 14.372 34.024C15.5933 34.86 17.2533 35.9973 19.8187 35.9973C19.8747 35.9973 19.9307 35.996 19.9853 35.9947C20.052 35.9987 20.12 36 20.188 36C22.7413 36 24.4027 34.868 25.616 34.0413C26.084 33.7213 26.5867 33.3773 26.8227 33.34C27.084 33.2987 27.3453 33.2773 27.5933 33.2773C28.0187 33.2773 28.352 33.324 28.752 33.4C29.192 33.4827 29.5453 33.5213 29.8653 33.5213C31.2813 33.5213 32.4333 32.6747 32.84 31.364C34.732 30.9533 36.388 30.248 37.0667 28.708C37.2227 28.3467 37.308 27.992 37.3307 27.6307C37.4173 26.0893 36.3453 24.7587 34.8387 24.5133C33.0773 24.232 31.8707 22.9307 31.2173 21.9973C31.2373 21.9907 31.256 21.9827 31.2733 21.976C33.9453 20.9533 34.3173 19.2387 34.3013 18.308C34.272 16.8827 33.3107 15.6387 31.8453 15.1133C31.4747 14.964 31.0133 14.8693 30.5453 14.8533C30.5893 13.1573 30.4827 11.3853 29.844 9.996C27.2813 4.43333 21.8867 4 20.2933 4Z" fill="#EFEEEE"/>
</svg>
