<svg width="35" height="35" viewBox="0 0 35 35" fill="none" xmlns="http://www.w3.org/2000/svg">
<path d="M31.8182 0H3.18182C1.42386 0 0 1.42386 0 3.18182V31.8182C0 33.5761 1.42386 35 3.18182 35H31.8182C33.5761 35 35 33.5761 35 31.8182V3.18182C35 1.42386 33.5745 0 31.8182 0ZM29.7325 15.0723C29.5257 15.0914 29.3173 15.1041 29.1073 15.1041C26.7289 15.1041 24.6384 13.8823 23.4214 12.032C23.4214 16.8827 23.4214 22.4032 23.4214 22.4955C23.4214 26.767 19.958 30.2289 15.688 30.2289C11.418 30.2273 7.95455 26.7639 7.95455 22.4939C7.95455 18.2223 11.418 14.7605 15.688 14.7605C15.8502 14.7605 16.0077 14.7748 16.1652 14.7843V18.5961C16.0061 18.577 15.8518 18.5484 15.688 18.5484C13.5084 18.5484 11.7409 20.3159 11.7409 22.4955C11.7409 24.675 13.5068 26.4425 15.688 26.4425C17.8691 26.4425 19.7941 24.7243 19.7941 22.5448C19.7941 22.4573 19.8323 4.77432 19.8323 4.77432H23.4739C23.8159 8.03091 26.4457 10.6018 29.7325 10.8373V15.0723Z" fill="#EFEEEE"/>
</svg>
