<svg width="45" height="45" viewBox="0 0 45 45" fill="none" xmlns="http://www.w3.org/2000/svg">
<path d="M22.5 6C16.221 6 8.07129 7.57324 8.07129 7.57324L8.05078 7.59668C5.19099 8.05405 3 10.5114 3 13.5V22.5V22.5029V31.5V31.5029C3.00279 32.9302 3.5143 34.3098 4.4427 35.3939C5.37109 36.478 6.65554 37.1957 8.06543 37.418L8.07129 37.4268C8.07129 37.4268 16.221 39.0029 22.5 39.0029C28.779 39.0029 36.9287 37.4268 36.9287 37.4268L36.9316 37.4238C38.3431 37.202 39.629 36.4838 40.5581 35.3984C41.4872 34.313 41.9985 32.9317 42 31.5029V31.5V22.5029V22.5V13.5C41.9979 12.0722 41.4867 10.6919 40.5583 9.60721C39.6298 8.52249 38.345 7.80443 36.9346 7.58203L36.9287 7.57324C36.9287 7.57324 28.779 6 22.5 6ZM18 15.5977L30 22.5L18 29.4023V15.5977Z" fill="#EFEEEE"/>
</svg>
